<?xml version="1.0" encoding="utf-8"?>
<!-- Generator: Adobe Illustrator 22.0.0, SVG Export Plug-In . SVG Version: 6.00 Build 0)  -->
<svg version="1.1" id="Layer_1" xmlns="http://www.w3.org/2000/svg" xmlns:xlink="http://www.w3.org/1999/xlink" x="0px" y="0px"
	 viewBox="0 0 54 50" style="enable-background:new 0 0 54 50;" xml:space="preserve">
<style type="text/css">
	.st0{clip-path:url(#SVGID_2_);fill:none;stroke:#305B81;stroke-miterlimit:10;}
	.st1{clip-path:url(#SVGID_4_);}
	.st2{clip-path:url(#SVGID_6_);enable-background:new    ;}
	.st3{clip-path:url(#SVGID_8_);}
	.st4{clip-path:url(#SVGID_10_);fill:#305B81;}
	.st5{clip-path:url(#SVGID_10_);fill:none;stroke:#305B81;stroke-miterlimit:10;}
	.st6{clip-path:url(#SVGID_12_);}
	.st7{clip-path:url(#SVGID_14_);fill:#305B81;}
</style>
<title>Artboard</title>
<desc>Created with Sketch.</desc>
<g>
	<defs>
		<rect id="SVGID_1_" x="-136.6" y="-1235.5" width="1312" height="2198"/>
	</defs>
	<clipPath id="SVGID_2_">
		<use xlink:href="#SVGID_1_"  style="overflow:visible;"/>
	</clipPath>
	<path class="st0" d="M47.9,12.1c-0.6,0-1.2,0.3-1.6,0.8c-0.7,0.9-0.5,2.1,0.4,2.8c0.3,0.3,0.8,0.4,1.2,0.4c0.6,0,1.2-0.3,1.6-0.8
		c0.3-0.4,0.5-0.9,0.4-1.5c-0.1-0.5-0.4-1-0.8-1.3C48.8,12.2,48.3,12.1,47.9,12.1z M47.9,16.6c-0.6,0-1.1-0.2-1.5-0.5
		c-1.1-0.8-1.4-2.5-0.5-3.6c0.5-0.7,1.2-1,2.1-1c0.6,0,1.1,0.2,1.5,0.5c0.5,0.4,0.9,1,1,1.7c0.1,0.7-0.1,1.4-0.5,1.9
		C49.5,16.2,48.7,16.6,47.9,16.6z M40.7,35.4c-0.6,0-1.2,0.3-1.6,0.8c-0.7,0.9-0.5,2.1,0.4,2.8c0.3,0.3,0.8,0.4,1.2,0.4
		c0.6,0,1.2-0.3,1.6-0.8c0.7-0.9,0.5-2.1-0.4-2.8C41.6,35.5,41.2,35.4,40.7,35.4z M40.7,39.9c-0.6,0-1.1-0.2-1.5-0.5
		c-1.1-0.9-1.4-2.5-0.5-3.6c0.5-0.7,1.2-1,2.1-1c0.6,0,1.1,0.2,1.5,0.5c1.1,0.8,1.4,2.5,0.5,3.6C42.3,39.5,41.5,39.9,40.7,39.9z
		 M23.8,12.1c-0.6,0-1.2,0.3-1.6,0.8c-0.7,0.9-0.5,2.1,0.4,2.8c0.3,0.3,0.8,0.4,1.2,0.4c0.6,0,1.2-0.3,1.6-0.8
		c0.7-0.9,0.5-2.1-0.4-2.8C24.6,12.2,24.2,12.1,23.8,12.1z M23.8,16.6c-0.6,0-1.1-0.2-1.5-0.5c-1.1-0.8-1.4-2.5-0.5-3.6
		c0.5-0.7,1.2-1,2.1-1c0.6,0,1.1,0.2,1.5,0.5c1.1,0.8,1.4,2.5,0.5,3.6C25.3,16.2,24.6,16.6,23.8,16.6z M4.5,23.2
		c-0.6,0-1.2,0.3-1.6,0.8c-0.3,0.4-0.5,0.9-0.4,1.5c0.1,0.5,0.4,1,0.8,1.3c0.3,0.3,0.8,0.4,1.2,0.4c0.6,0,1.2-0.3,1.6-0.8
		c0.7-0.9,0.5-2.1-0.4-2.8C5.4,23.3,4.9,23.2,4.5,23.2z M4.5,27.7c-0.6,0-1.1-0.2-1.5-0.5c-0.5-0.4-0.9-1-1-1.7
		c-0.1-0.7,0.1-1.4,0.5-1.9c0.5-0.7,1.2-1,2.1-1c0.6,0,1.1,0.2,1.5,0.5c1.1,0.8,1.4,2.5,0.5,3.6C6.1,27.3,5.3,27.7,4.5,27.7z
		 M14.6,14.4c-1.1,3.2-1.8,6.9-1.8,10.7h9.9c0-3,0.1-6.1,0.4-8.9c0.2,0.1,0.4,0.1,0.6,0.1c-0.2,2.6-0.4,5.6-0.4,8.8h9
		c0-4-0.2-7.6-0.6-10.7H26c0-0.2,0-0.4,0-0.6h5.6c-0.8-7.1-2.4-11.5-3.9-11.5c-1.3,0-2.7,3.5-3.6,9.5c-0.2,0-0.4,0-0.6,0
		c0.7-4.5,1.6-7.9,2.9-9.3c-5,0.6-9.3,5-11.7,11.4h6.7c0,0.2,0,0.4,0,0.6H14.6z M40.6,13.5C38.1,7.3,33.9,3.1,29,2.4
		c1.5,1.6,2.5,6,3.2,11.4h8.5C40.7,13.7,40.6,13.6,40.6,13.5z M40.9,14.4h-8.7c0.4,3.3,0.6,7.1,0.6,10.7h9.9
		C42.7,21.2,42.1,17.6,40.9,14.4z M7.8,13.8h6.4c1.9-5.2,5.2-9.2,9-11C16.6,4.1,11.1,8.2,7.8,13.8z M32.2,25.7h-9
		c0,4.2,0.2,8,0.6,11.2h7.8C32,33.7,32.2,29.9,32.2,25.7z M12.8,25.7c0,4.1,0.8,7.9,2,11.2h8.5c-0.4-3.5-0.6-7.4-0.6-11.2H12.8z
		 M8.1,37.5c3.3,5.3,8.7,9.2,15,10.5c-3.7-1.7-6.8-5.5-8.8-10.5H8.1z M15,37.5c2.4,6,6.6,10.2,11.5,10.9c-1.4-1.6-2.5-5.7-3.1-10.9
		H15z M27.8,48.5c1.4,0,3-4.1,3.8-10.9H24C24.8,44.4,26.3,48.5,27.8,48.5z M50.8,26.5c0-0.3,0-0.5,0-0.8h-7.5c0,0.3,0,0.6,0,0.8
		c0,0.1,0,0.2,0,0.3c0,0.3,0,0.5,0,0.8c0,0.1,0,0.3,0,0.4c0,0.2,0,0.5-0.1,0.7c0,0.1,0,0.2,0,0.4c0,0.3-0.1,0.6-0.1,0.8
		c0,0.1,0,0.2,0,0.2c0,0.4-0.1,0.7-0.2,1c0,0.1,0,0.2,0,0.3c0,0.3-0.1,0.5-0.1,0.8c0,0.1,0,0.2-0.1,0.4c0,0.2-0.1,0.4-0.1,0.7
		c0,0.1-0.1,0.2-0.1,0.4c-0.1,0.2-0.1,0.5-0.2,0.7c0,0.1-0.1,0.2-0.1,0.3c-0.1,0.2-0.1,0.5-0.2,0.7c-0.2-0.1-0.4-0.2-0.5-0.2
		c0.9-2.9,1.4-6.1,1.4-9.4h-9.9c0,3.9-0.2,7.8-0.6,11.2h6.3c0,0.2,0,0.4,0,0.6h-6.4c-0.6,5.2-1.7,9.3-3.1,10.9c4.4-0.6,8.2-4,10.7-9
		c0.2,0.1,0.4,0.2,0.5,0.2c0,0,0,0,0,0c-0.1,0.3-0.3,0.5-0.4,0.8c0,0.1-0.1,0.2-0.1,0.2c-0.1,0.2-0.2,0.4-0.3,0.6
		c-0.1,0.1-0.1,0.2-0.2,0.3c-0.1,0.2-0.2,0.3-0.3,0.5c-0.1,0.1-0.1,0.2-0.2,0.3c-0.1,0.2-0.2,0.4-0.4,0.5c0,0.1-0.1,0.1-0.1,0.2
		c-0.2,0.2-0.3,0.5-0.5,0.7c0,0-0.1,0.1-0.1,0.1c-0.1,0.2-0.3,0.3-0.4,0.5c-0.1,0.1-0.1,0.1-0.2,0.2c-0.1,0.1-0.2,0.3-0.4,0.4
		c-0.1,0.1-0.1,0.1-0.2,0.2c-0.1,0.1-0.3,0.3-0.4,0.4c-0.1,0.1-0.1,0.1-0.2,0.2c-0.4,0.4-0.8,0.7-1.2,1c-0.1,0-0.1,0.1-0.2,0.1
		c-0.2,0.1-0.3,0.2-0.5,0.3c-0.1,0-0.1,0.1-0.2,0.1c-0.2,0.1-0.3,0.2-0.5,0.3c-0.1,0-0.1,0.1-0.2,0.1c-0.2,0.1-0.4,0.2-0.6,0.3
		c0,0-0.1,0-0.1,0.1c0,0,0,0,0,0c0,0,0,0,0,0c0.1,0,0.1,0,0.2,0c0.3-0.1,0.6-0.1,0.9-0.2c0.1,0,0.2-0.1,0.3-0.1
		c0.2-0.1,0.5-0.1,0.7-0.2c0.1,0,0.2-0.1,0.4-0.1c0.2-0.1,0.4-0.1,0.7-0.2c0.1,0,0.2-0.1,0.4-0.1c0.2-0.1,0.4-0.2,0.6-0.3
		c0.1,0,0.2-0.1,0.4-0.1c0.2-0.1,0.4-0.2,0.7-0.3c0.1,0,0.2-0.1,0.3-0.1c0.3-0.1,0.5-0.3,0.7-0.4c0.1,0,0.1-0.1,0.2-0.1
		c0.3-0.2,0.6-0.3,0.9-0.5c0,0,0.1-0.1,0.1-0.1c0.3-0.2,0.5-0.3,0.7-0.5c0.1-0.1,0.2-0.1,0.3-0.2c0.2-0.1,0.4-0.3,0.6-0.4
		c0.1-0.1,0.2-0.2,0.3-0.2c0.2-0.1,0.3-0.3,0.5-0.4c0.1-0.1,0.2-0.2,0.3-0.3c0.2-0.1,0.3-0.3,0.5-0.4c0.1-0.1,0.2-0.2,0.3-0.3
		c0.2-0.2,0.3-0.3,0.5-0.5c0.1-0.1,0.2-0.2,0.3-0.3c0.2-0.2,0.4-0.4,0.5-0.6c0.1-0.1,0.1-0.1,0.2-0.2c0.2-0.3,0.5-0.5,0.7-0.8
		c0,0,0.1-0.1,0.1-0.1c0.2-0.2,0.4-0.5,0.6-0.7c0.1-0.1,0.1-0.2,0.2-0.3c0.1-0.2,0.3-0.4,0.4-0.6c0.1-0.1,0.1-0.2,0.2-0.3
		c0.1-0.2,0.2-0.4,0.3-0.5H43c0-0.2,0-0.4,0-0.6h4.7c0.1-0.1,0.1-0.2,0.2-0.3c0.1-0.1,0.1-0.2,0.2-0.4c0.1-0.2,0.2-0.4,0.3-0.6
		c0.1-0.1,0.1-0.2,0.2-0.4c0.1-0.2,0.2-0.5,0.3-0.7c0-0.1,0.1-0.2,0.1-0.3c0.1-0.3,0.3-0.7,0.4-1c0,0,0-0.1,0-0.1
		c0.1-0.3,0.2-0.6,0.3-0.9c0-0.1,0.1-0.2,0.1-0.3c0.1-0.2,0.1-0.5,0.2-0.7c0-0.1,0.1-0.3,0.1-0.4c0.1-0.2,0.1-0.4,0.2-0.7
		c0-0.1,0.1-0.3,0.1-0.4c0-0.2,0.1-0.4,0.1-0.7c0-0.1,0-0.3,0.1-0.4c0-0.2,0.1-0.4,0.1-0.7c0-0.1,0-0.3,0-0.4c0-0.2,0-0.5,0.1-0.7
		C50.8,26.8,50.8,26.7,50.8,26.5z M49.4,15.8c1.3,2.9,2.1,6.2,2.1,9.6c0,13-10.6,23.6-23.6,23.6v0c-12.4,0-22.6-9.6-23.6-21.7
		c0.2,0,0.4,0,0.6,0c0.3,3.5,1.4,6.7,3,9.6h6.4c-1.2-3.3-1.9-7.2-2-11.2H6.7c0-0.2,0.1-0.4,0.1-0.6h5.4c0-3.9,0.7-7.5,1.8-10.7H7.5
		c-1.4,2.6-2.3,5.5-2.7,8.5c-0.2,0-0.4,0-0.6,0C5.5,11,15.6,1.8,27.8,1.8c8,0,15.1,4,19.4,10.1c-0.2,0.1-0.4,0.2-0.5,0.3
		c-0.1-0.1-0.1-0.2-0.2-0.3c-0.1-0.1-0.1-0.2-0.2-0.3c-0.2-0.2-0.3-0.4-0.5-0.7c0-0.1-0.1-0.1-0.1-0.2c-0.2-0.3-0.4-0.5-0.7-0.8
		c-0.1-0.1-0.1-0.2-0.2-0.2c-0.2-0.2-0.3-0.4-0.5-0.5C44,9.1,43.9,9,43.8,8.9c-0.2-0.2-0.3-0.3-0.5-0.4c-0.1-0.1-0.2-0.2-0.3-0.3
		c-0.2-0.1-0.3-0.3-0.5-0.4c-0.1-0.1-0.2-0.2-0.3-0.3c-0.2-0.1-0.3-0.3-0.5-0.4c-0.1-0.1-0.2-0.2-0.3-0.3c-0.2-0.1-0.4-0.3-0.5-0.4
		c-0.1-0.1-0.2-0.1-0.3-0.2c-0.2-0.2-0.5-0.3-0.7-0.4c-0.1,0-0.1-0.1-0.2-0.1c-0.3-0.2-0.6-0.4-0.9-0.5c-0.1,0-0.2-0.1-0.2-0.1
		c-0.2-0.1-0.5-0.2-0.7-0.4c-0.1-0.1-0.2-0.1-0.3-0.2c-0.2-0.1-0.4-0.2-0.6-0.3c-0.1-0.1-0.3-0.1-0.4-0.2c-0.2-0.1-0.4-0.2-0.6-0.2
		c-0.1,0-0.3-0.1-0.4-0.1c-0.2-0.1-0.4-0.1-0.6-0.2c-0.1,0-0.3-0.1-0.4-0.1c-0.2-0.1-0.5-0.1-0.7-0.2c-0.1,0-0.2-0.1-0.4-0.1
		c-0.3-0.1-0.6-0.1-0.8-0.2c-0.1,0-0.1,0-0.2,0c0,0,0,0,0,0c0,0,0,0,0,0c0,0,0.1,0,0.1,0.1C32.7,3,32.8,3.1,33,3.2
		c0.1,0,0.1,0.1,0.2,0.1c0.1,0.1,0.3,0.2,0.4,0.3c0.1,0,0.2,0.1,0.2,0.1c0.2,0.1,0.3,0.2,0.4,0.3c0.1,0,0.1,0.1,0.2,0.1
		c0.2,0.2,0.4,0.3,0.6,0.5c0,0,0,0,0,0c0.2,0.2,0.4,0.3,0.6,0.5c0.1,0.1,0.1,0.1,0.2,0.2c0.1,0.1,0.3,0.3,0.4,0.4
		c0.1,0.1,0.1,0.1,0.2,0.2c0.1,0.1,0.2,0.3,0.4,0.4c0.1,0.1,0.1,0.1,0.2,0.2c0.1,0.2,0.3,0.3,0.4,0.5c0,0.1,0.1,0.1,0.1,0.2
		c0.2,0.2,0.3,0.4,0.5,0.7c0,0.1,0.1,0.1,0.1,0.2c0.1,0.2,0.2,0.3,0.4,0.5c0.1,0.1,0.1,0.2,0.2,0.3C39,9,39.1,9.2,39.2,9.4
		c0.1,0.1,0.1,0.2,0.2,0.3c0.1,0.2,0.2,0.4,0.3,0.5c0,0.1,0.1,0.2,0.1,0.3c0.1,0.3,0.3,0.5,0.4,0.8c0,0.1,0,0.1,0.1,0.2
		c0.1,0.2,0.2,0.5,0.3,0.7c0,0.1,0.1,0.2,0.1,0.3c0.1,0.2,0.2,0.4,0.2,0.6c0,0.1,0.1,0.2,0.1,0.3c0.1,0.2,0.1,0.3,0.2,0.5h4.3
		c0,0.2,0,0.4,0,0.6h-4.1c0.1,0.2,0.1,0.4,0.2,0.6c0,0.1,0,0.1,0.1,0.2c0.1,0.3,0.2,0.6,0.3,1c0,0.1,0.1,0.2,0.1,0.3
		c0.1,0.2,0.1,0.5,0.2,0.7c0,0.1,0.1,0.2,0.1,0.4c0.1,0.2,0.1,0.4,0.1,0.7c0,0.1,0.1,0.2,0.1,0.4c0.1,0.2,0.1,0.5,0.1,0.8
		c0,0.1,0,0.2,0.1,0.3c0.1,0.3,0.1,0.7,0.2,1c0,0.1,0,0.2,0,0.2c0,0.3,0.1,0.6,0.1,0.8c0,0.1,0,0.2,0,0.4c0,0.2,0,0.5,0.1,0.7
		c0,0.1,0,0.3,0,0.4c0,0.3,0,0.5,0,0.8c0,0.1,0,0.2,0,0.4c0,0.3,0,0.5,0,0.8h7.5c0-0.3,0-0.6,0-0.8c0-0.1,0-0.2,0-0.4
		c0-0.2,0-0.5-0.1-0.7c0-0.1,0-0.3,0-0.4c0-0.2-0.1-0.4-0.1-0.7c0-0.1,0-0.3-0.1-0.4c0-0.2-0.1-0.4-0.1-0.6c0-0.1-0.1-0.3-0.1-0.4
		c0-0.2-0.1-0.4-0.1-0.6c0-0.1-0.1-0.3-0.1-0.4c-0.1-0.2-0.1-0.5-0.2-0.7c0-0.1-0.1-0.2-0.1-0.4c-0.1-0.3-0.2-0.6-0.3-0.9
		c0,0,0-0.1,0-0.1c-0.1-0.3-0.3-0.7-0.4-1c0-0.1-0.1-0.2-0.1-0.3c0,0,0-0.1,0-0.1C49,16,49.2,15.9,49.4,15.8z"/>
</g>
<g>
	<defs>
		<path id="SVGID_3_" d="M47.9,12.1c-0.6,0-1.2,0.3-1.6,0.8c-0.7,0.9-0.5,2.1,0.4,2.8c0.3,0.3,0.8,0.4,1.2,0.4
			c0.6,0,1.2-0.3,1.6-0.8c0.3-0.4,0.5-0.9,0.4-1.5c-0.1-0.5-0.4-1-0.8-1.3C48.8,12.2,48.3,12.1,47.9,12.1z M47.9,16.6
			c-0.6,0-1.1-0.2-1.5-0.5c-1.1-0.8-1.4-2.5-0.5-3.6c0.5-0.7,1.2-1,2.1-1c0.6,0,1.1,0.2,1.5,0.5c0.5,0.4,0.9,1,1,1.7
			c0.1,0.7-0.1,1.4-0.5,1.9C49.5,16.2,48.7,16.6,47.9,16.6z M40.7,35.4c-0.6,0-1.2,0.3-1.6,0.8c-0.7,0.9-0.5,2.1,0.4,2.8
			c0.3,0.3,0.8,0.4,1.2,0.4c0.6,0,1.2-0.3,1.6-0.8c0.7-0.9,0.5-2.1-0.4-2.8C41.6,35.5,41.2,35.4,40.7,35.4z M40.7,39.9
			c-0.6,0-1.1-0.2-1.5-0.5c-1.1-0.9-1.4-2.5-0.5-3.6c0.5-0.7,1.2-1,2.1-1c0.6,0,1.1,0.2,1.5,0.5c1.1,0.8,1.4,2.5,0.5,3.6
			C42.3,39.5,41.5,39.9,40.7,39.9z M23.8,12.1c-0.6,0-1.2,0.3-1.6,0.8c-0.7,0.9-0.5,2.1,0.4,2.8c0.3,0.3,0.8,0.4,1.2,0.4
			c0.6,0,1.2-0.3,1.6-0.8c0.7-0.9,0.5-2.1-0.4-2.8C24.6,12.2,24.2,12.1,23.8,12.1z M23.8,16.6c-0.6,0-1.1-0.2-1.5-0.5
			c-1.1-0.8-1.4-2.5-0.5-3.6c0.5-0.7,1.2-1,2.1-1c0.6,0,1.1,0.2,1.5,0.5c1.1,0.8,1.4,2.5,0.5,3.6C25.3,16.2,24.6,16.6,23.8,16.6z
			 M4.5,23.2c-0.6,0-1.2,0.3-1.6,0.8c-0.3,0.4-0.5,0.9-0.4,1.5s0.4,1,0.8,1.3c0.3,0.3,0.8,0.4,1.2,0.4c0.6,0,1.2-0.3,1.6-0.8
			c0.7-0.9,0.5-2.1-0.4-2.8C5.4,23.3,4.9,23.2,4.5,23.2z M4.5,27.7c-0.6,0-1.1-0.2-1.5-0.5c-0.5-0.4-0.9-1-1-1.7
			c-0.1-0.7,0.1-1.4,0.5-1.9c0.5-0.7,1.2-1,2.1-1c0.6,0,1.1,0.2,1.5,0.5c1.1,0.8,1.4,2.5,0.5,3.6C6.1,27.3,5.3,27.7,4.5,27.7z
			 M14.6,14.4c-1.1,3.2-1.8,6.9-1.8,10.7h9.9c0-3,0.1-6.1,0.4-8.9c0.2,0.1,0.4,0.1,0.6,0.1c-0.2,2.6-0.4,5.6-0.4,8.8h9
			c0-4-0.2-7.6-0.6-10.7H26c0-0.2,0-0.4,0-0.6h5.6c-0.8-7.1-2.4-11.5-3.9-11.5c-1.3,0-2.7,3.5-3.6,9.5c-0.2,0-0.4,0-0.6,0
			c0.7-4.5,1.6-7.9,2.9-9.3c-5,0.6-9.3,5-11.7,11.4h6.7c0,0.2,0,0.4,0,0.6H14.6z M40.6,13.5C38.1,7.3,33.9,3.1,29,2.4
			c1.5,1.6,2.5,6,3.2,11.4h8.5C40.7,13.7,40.6,13.6,40.6,13.5z M40.9,14.4h-8.7c0.4,3.3,0.6,7.1,0.6,10.7h9.9
			C42.7,21.2,42.1,17.6,40.9,14.4z M7.8,13.8h6.4c1.9-5.2,5.2-9.2,9-11C16.6,4.1,11.1,8.2,7.8,13.8z M32.2,25.7h-9
			c0,4.2,0.2,8,0.6,11.2h7.8C32,33.7,32.2,29.9,32.2,25.7z M12.8,25.7c0,4.1,0.8,7.9,2,11.2h8.5c-0.4-3.5-0.6-7.4-0.6-11.2H12.8z
			 M8.1,37.5c3.3,5.3,8.7,9.2,15,10.5c-3.7-1.7-6.8-5.5-8.8-10.5H8.1z M15,37.5c2.4,6,6.6,10.2,11.5,10.9c-1.4-1.6-2.5-5.7-3.1-10.9
			H15z M27.8,48.5c1.4,0,3-4.1,3.8-10.9H24C24.8,44.4,26.3,48.5,27.8,48.5z M50.8,26.5c0-0.3,0-0.6,0-0.8h-7.5c0,0.3,0,0.6,0,0.8
			c0,0.1,0,0.2,0,0.3c0,0.3,0,0.5,0,0.8c0,0.1,0,0.3,0,0.4c0,0.2,0,0.5-0.1,0.7c0,0.1,0,0.2,0,0.4c0,0.3-0.1,0.6-0.1,0.8
			c0,0.1,0,0.2,0,0.2c0,0.4-0.1,0.7-0.2,1c0,0.1,0,0.2,0,0.3c0,0.3-0.1,0.5-0.1,0.8c0,0.1,0,0.2-0.1,0.4c0,0.2-0.1,0.4-0.1,0.7
			c0,0.1-0.1,0.2-0.1,0.4c-0.1,0.2-0.1,0.5-0.2,0.7c0,0.1-0.1,0.2-0.1,0.3c-0.1,0.2-0.1,0.5-0.2,0.7c-0.2-0.1-0.4-0.2-0.5-0.2
			c0.9-2.9,1.4-6.1,1.4-9.4h-9.9c0,3.9-0.2,7.8-0.6,11.2h6.3c0,0.2,0,0.4,0,0.6h-6.4c-0.6,5.2-1.7,9.3-3.1,10.9
			c4.4-0.6,8.2-4,10.7-9c0.2,0.1,0.4,0.2,0.5,0.2c0,0,0,0,0,0c-0.1,0.3-0.3,0.5-0.4,0.8c0,0.1-0.1,0.2-0.1,0.2
			c-0.1,0.2-0.2,0.4-0.3,0.6c-0.1,0.1-0.1,0.2-0.2,0.3c-0.1,0.2-0.2,0.3-0.3,0.5c-0.1,0.1-0.1,0.2-0.2,0.3c-0.1,0.2-0.2,0.4-0.4,0.5
			c0,0.1-0.1,0.1-0.1,0.2c-0.2,0.2-0.3,0.5-0.5,0.7c0,0-0.1,0.1-0.1,0.1c-0.1,0.2-0.3,0.3-0.4,0.5c-0.1,0.1-0.1,0.1-0.2,0.2
			c-0.1,0.1-0.2,0.3-0.4,0.4c-0.1,0.1-0.1,0.1-0.2,0.2c-0.1,0.1-0.3,0.3-0.4,0.4c-0.1,0.1-0.1,0.1-0.2,0.2c-0.4,0.4-0.8,0.7-1.2,1
			c-0.1,0-0.1,0.1-0.2,0.1c-0.2,0.1-0.3,0.2-0.5,0.3c-0.1,0-0.1,0.1-0.2,0.1c-0.2,0.1-0.3,0.2-0.5,0.3c-0.1,0-0.1,0.1-0.2,0.1
			c-0.2,0.1-0.4,0.2-0.6,0.3c0,0-0.1,0-0.1,0.1c0,0,0,0,0,0c0,0,0,0,0,0c0.1,0,0.1,0,0.2,0c0.3-0.1,0.6-0.1,0.9-0.2
			c0.1,0,0.2-0.1,0.3-0.1c0.2-0.1,0.5-0.1,0.7-0.2c0.1,0,0.2-0.1,0.4-0.1c0.2-0.1,0.4-0.1,0.7-0.2c0.1,0,0.2-0.1,0.4-0.1
			c0.2-0.1,0.4-0.2,0.6-0.3c0.1,0,0.2-0.1,0.4-0.1c0.2-0.1,0.4-0.2,0.7-0.3c0.1,0,0.2-0.1,0.3-0.1c0.3-0.1,0.5-0.3,0.7-0.4
			c0.1,0,0.1-0.1,0.2-0.1c0.3-0.2,0.6-0.3,0.9-0.5c0,0,0.1-0.1,0.1-0.1c0.3-0.2,0.5-0.3,0.7-0.5c0.1-0.1,0.2-0.1,0.3-0.2
			c0.2-0.1,0.4-0.3,0.6-0.4c0.1-0.1,0.2-0.2,0.3-0.2c0.2-0.1,0.3-0.3,0.5-0.4c0.1-0.1,0.2-0.2,0.3-0.3c0.2-0.1,0.3-0.3,0.5-0.4
			c0.1-0.1,0.2-0.2,0.3-0.3c0.2-0.2,0.3-0.3,0.5-0.5c0.1-0.1,0.2-0.2,0.3-0.3c0.2-0.2,0.4-0.4,0.5-0.6c0.1-0.1,0.1-0.1,0.2-0.2
			c0.2-0.3,0.5-0.5,0.7-0.8c0,0,0.1-0.1,0.1-0.1c0.2-0.2,0.4-0.5,0.6-0.7c0.1-0.1,0.1-0.2,0.2-0.3c0.1-0.2,0.3-0.4,0.4-0.6
			c0.1-0.1,0.1-0.2,0.2-0.3c0.1-0.2,0.2-0.4,0.3-0.5H43c0-0.2,0-0.4,0-0.6h4.7c0.1-0.1,0.1-0.2,0.2-0.3c0.1-0.1,0.1-0.2,0.2-0.4
			c0.1-0.2,0.2-0.4,0.3-0.6c0.1-0.1,0.1-0.2,0.2-0.4c0.1-0.2,0.2-0.5,0.3-0.7c0-0.1,0.1-0.2,0.1-0.3c0.1-0.3,0.3-0.7,0.4-1
			c0,0,0-0.1,0-0.1c0.1-0.3,0.2-0.6,0.3-0.9c0-0.1,0.1-0.2,0.1-0.3c0.1-0.2,0.1-0.5,0.2-0.7c0-0.1,0.1-0.3,0.1-0.4
			c0.1-0.2,0.1-0.4,0.2-0.7c0-0.1,0.1-0.3,0.1-0.4c0-0.2,0.1-0.4,0.1-0.7c0-0.1,0-0.3,0.1-0.4c0-0.2,0.1-0.5,0.1-0.7
			c0-0.1,0-0.3,0-0.4c0-0.2,0-0.5,0.1-0.7C50.8,26.8,50.8,26.7,50.8,26.5z M49.4,15.8c1.3,2.9,2.1,6.2,2.1,9.6
			c0,13-10.6,23.6-23.6,23.6v0c-12.4,0-22.6-9.6-23.6-21.7c0.2,0,0.4,0,0.6,0c0.3,3.5,1.4,6.7,3,9.6h6.4c-1.2-3.3-1.9-7.2-2-11.2
			H6.7c0-0.2,0.1-0.4,0.1-0.6h5.4c0-3.9,0.7-7.5,1.8-10.7H7.5c-1.4,2.6-2.3,5.5-2.7,8.5c-0.2,0-0.4,0-0.6,0
			C5.5,11,15.6,1.8,27.8,1.8c8,0,15.1,4,19.4,10.1c-0.2,0.1-0.4,0.2-0.5,0.3c-0.1-0.1-0.1-0.2-0.2-0.3c-0.1-0.1-0.1-0.2-0.2-0.3
			c-0.2-0.2-0.3-0.4-0.5-0.7c0-0.1-0.1-0.1-0.1-0.2c-0.2-0.3-0.4-0.5-0.7-0.8c-0.1-0.1-0.1-0.2-0.2-0.2c-0.2-0.2-0.3-0.4-0.5-0.5
			C44,9.1,43.9,9,43.8,8.9c-0.2-0.2-0.3-0.3-0.5-0.4c-0.1-0.1-0.2-0.2-0.3-0.3c-0.2-0.1-0.3-0.3-0.5-0.4c-0.1-0.1-0.2-0.2-0.3-0.3
			c-0.2-0.1-0.3-0.3-0.5-0.4c-0.1-0.1-0.2-0.2-0.3-0.3c-0.2-0.1-0.4-0.3-0.5-0.4c-0.1-0.1-0.2-0.1-0.3-0.2c-0.2-0.2-0.5-0.3-0.7-0.4
			c-0.1,0-0.1-0.1-0.2-0.1c-0.3-0.2-0.6-0.4-0.9-0.5c-0.1,0-0.2-0.1-0.2-0.1c-0.2-0.1-0.5-0.2-0.7-0.4c-0.1-0.1-0.2-0.1-0.3-0.2
			c-0.2-0.1-0.4-0.2-0.6-0.3c-0.1-0.1-0.3-0.1-0.4-0.2c-0.2-0.1-0.4-0.2-0.6-0.2c-0.1,0-0.3-0.1-0.4-0.1c-0.2-0.1-0.4-0.1-0.6-0.2
			c-0.1,0-0.3-0.1-0.4-0.1c-0.2-0.1-0.5-0.1-0.7-0.2c-0.1,0-0.2-0.1-0.4-0.1c-0.3-0.1-0.6-0.1-0.8-0.2c-0.1,0-0.1,0-0.2,0
			c0,0,0,0,0,0c0,0,0,0,0,0c0,0,0.1,0,0.1,0.1C32.7,3,32.9,3.1,33,3.2c0.1,0,0.1,0.1,0.2,0.1c0.1,0.1,0.3,0.2,0.4,0.3
			c0.1,0,0.2,0.1,0.2,0.1c0.1,0.1,0.3,0.2,0.4,0.3c0.1,0,0.1,0.1,0.2,0.1c0.2,0.2,0.4,0.3,0.6,0.5c0,0,0,0,0,0
			c0.2,0.2,0.4,0.3,0.6,0.5c0.1,0.1,0.1,0.1,0.2,0.2c0.1,0.1,0.3,0.3,0.4,0.4c0.1,0.1,0.1,0.1,0.2,0.2c0.1,0.1,0.2,0.3,0.4,0.4
			c0.1,0.1,0.1,0.1,0.2,0.2c0.1,0.2,0.3,0.3,0.4,0.5c0,0.1,0.1,0.1,0.1,0.2c0.2,0.2,0.3,0.4,0.5,0.7c0,0.1,0.1,0.1,0.1,0.2
			c0.1,0.2,0.2,0.3,0.4,0.5c0.1,0.1,0.1,0.2,0.2,0.3C39,9,39.1,9.2,39.2,9.4c0.1,0.1,0.1,0.2,0.2,0.3c0.1,0.2,0.2,0.4,0.3,0.5
			c0,0.1,0.1,0.2,0.1,0.3c0.1,0.3,0.3,0.5,0.4,0.8c0,0.1,0,0.1,0.1,0.2c0.1,0.2,0.2,0.5,0.3,0.7c0,0.1,0.1,0.2,0.1,0.3
			c0.1,0.2,0.2,0.4,0.2,0.6c0,0.1,0.1,0.2,0.1,0.3c0.1,0.2,0.1,0.3,0.2,0.5h4.3c0,0.2,0,0.4,0,0.6h-4.1c0.1,0.2,0.1,0.4,0.2,0.6
			c0,0.1,0,0.1,0.1,0.2c0.1,0.3,0.2,0.6,0.3,1c0,0.1,0.1,0.2,0.1,0.3c0.1,0.2,0.1,0.5,0.2,0.7c0,0.1,0.1,0.2,0.1,0.4
			c0.1,0.2,0.1,0.4,0.1,0.7c0,0.1,0.1,0.2,0.1,0.4c0,0.2,0.1,0.5,0.1,0.8c0,0.1,0,0.2,0.1,0.3c0.1,0.3,0.1,0.7,0.2,1
			c0,0.1,0,0.2,0,0.2c0,0.3,0.1,0.6,0.1,0.8c0,0.1,0,0.2,0,0.4c0,0.2,0,0.5,0.1,0.7c0,0.1,0,0.3,0,0.4c0,0.3,0,0.5,0,0.8
			c0,0.1,0,0.2,0,0.4c0,0.3,0,0.5,0,0.8h7.5c0-0.3,0-0.6,0-0.8c0-0.1,0-0.2,0-0.4c0-0.2,0-0.5-0.1-0.7c0-0.1,0-0.3,0-0.4
			c0-0.2-0.1-0.4-0.1-0.7c0-0.1,0-0.3-0.1-0.4c0-0.2-0.1-0.4-0.1-0.6c0-0.1-0.1-0.3-0.1-0.4c0-0.2-0.1-0.4-0.1-0.6
			c0-0.1-0.1-0.3-0.1-0.4c-0.1-0.2-0.1-0.5-0.2-0.7c0-0.1-0.1-0.2-0.1-0.4c-0.1-0.3-0.2-0.6-0.3-0.9c0,0,0-0.1,0-0.1
			c-0.1-0.3-0.3-0.7-0.4-1c0-0.1-0.1-0.2-0.1-0.3c0,0,0-0.1,0-0.1C49,16,49.2,15.9,49.4,15.8z"/>
	</defs>
	<clipPath id="SVGID_4_">
		<use xlink:href="#SVGID_3_"  style="overflow:visible;"/>
	</clipPath>
	<g class="st1">
		<defs>
			<rect id="SVGID_5_" x="-136.6" y="-1235.5" width="1312" height="2198"/>
		</defs>
		<clipPath id="SVGID_6_">
			<use xlink:href="#SVGID_5_"  style="overflow:visible;"/>
		</clipPath>
		<g class="st2">
			<g>
				<defs>
					<rect id="SVGID_7_" x="-3.6" y="-3.5" width="89" height="86"/>
				</defs>
				<clipPath id="SVGID_8_">
					<use xlink:href="#SVGID_7_"  style="overflow:visible;"/>
				</clipPath>
				<g class="st3">
					<defs>
						<rect id="SVGID_9_" x="1.4" y="1.5" width="50" height="48"/>
					</defs>
					<clipPath id="SVGID_10_">
						<use xlink:href="#SVGID_9_"  style="overflow:visible;"/>
					</clipPath>
					<rect x="-3.1" y="-3.2" class="st4" width="59.5" height="57.3"/>
					<path class="st5" d="M47.9,12.1c-0.6,0-1.2,0.3-1.6,0.8c-0.7,0.9-0.5,2.1,0.4,2.8c0.3,0.3,0.8,0.4,1.2,0.4
						c0.6,0,1.2-0.3,1.6-0.8c0.3-0.4,0.5-0.9,0.4-1.5c-0.1-0.5-0.4-1-0.8-1.3C48.8,12.2,48.3,12.1,47.9,12.1z M47.9,16.6
						c-0.6,0-1.1-0.2-1.5-0.5c-1.1-0.8-1.4-2.5-0.5-3.6c0.5-0.7,1.2-1,2.1-1c0.6,0,1.1,0.2,1.5,0.5c0.5,0.4,0.9,1,1,1.7
						c0.1,0.7-0.1,1.4-0.5,1.9C49.5,16.2,48.7,16.6,47.9,16.6z M40.7,35.4c-0.6,0-1.2,0.3-1.6,0.8c-0.7,0.9-0.5,2.1,0.4,2.8
						c0.3,0.3,0.8,0.4,1.2,0.4c0.6,0,1.2-0.3,1.6-0.8c0.7-0.9,0.5-2.1-0.4-2.8C41.6,35.5,41.2,35.4,40.7,35.4z M40.7,39.9
						c-0.6,0-1.1-0.2-1.5-0.5c-1.1-0.9-1.4-2.5-0.5-3.6c0.5-0.7,1.2-1,2.1-1c0.6,0,1.1,0.2,1.5,0.5c1.1,0.8,1.4,2.5,0.5,3.6
						C42.3,39.5,41.5,39.9,40.7,39.9z M23.8,12.1c-0.6,0-1.2,0.3-1.6,0.8c-0.7,0.9-0.5,2.1,0.4,2.8c0.3,0.3,0.8,0.4,1.2,0.4
						c0.6,0,1.2-0.3,1.6-0.8c0.7-0.9,0.5-2.1-0.4-2.8C24.6,12.2,24.2,12.1,23.8,12.1z M23.8,16.6c-0.6,0-1.1-0.2-1.5-0.5
						c-1.1-0.8-1.4-2.5-0.5-3.6c0.5-0.7,1.2-1,2.1-1c0.6,0,1.1,0.2,1.5,0.5c1.1,0.8,1.4,2.5,0.5,3.6C25.3,16.2,24.6,16.6,23.8,16.6z
						 M4.5,23.2c-0.6,0-1.2,0.3-1.6,0.8c-0.3,0.4-0.5,0.9-0.4,1.5c0.1,0.5,0.4,1,0.8,1.3c0.3,0.3,0.8,0.4,1.2,0.4
						c0.6,0,1.2-0.3,1.6-0.8c0.7-0.9,0.5-2.1-0.4-2.8C5.4,23.3,4.9,23.2,4.5,23.2z M4.5,27.7c-0.6,0-1.1-0.2-1.5-0.5
						c-0.5-0.4-0.9-1-1-1.7c-0.1-0.7,0.1-1.4,0.5-1.9c0.5-0.7,1.2-1,2.1-1c0.6,0,1.1,0.2,1.5,0.5c1.1,0.8,1.4,2.5,0.5,3.6
						C6.1,27.3,5.3,27.7,4.5,27.7z M14.6,14.4c-1.1,3.2-1.8,6.9-1.8,10.7h9.9c0-3,0.1-6.1,0.4-8.9c0.2,0.1,0.4,0.1,0.6,0.1
						c-0.2,2.6-0.4,5.6-0.4,8.8h9c0-4-0.2-7.6-0.6-10.7H26c0-0.2,0-0.4,0-0.6h5.6c-0.8-7.1-2.4-11.5-3.9-11.5
						c-1.3,0-2.7,3.5-3.6,9.5c-0.2,0-0.4,0-0.6,0c0.7-4.5,1.6-7.9,2.9-9.3c-5,0.6-9.3,5-11.7,11.4h6.7c0,0.2,0,0.4,0,0.6H14.6z
						 M40.6,13.5C38.1,7.3,33.9,3.1,29,2.4c1.5,1.6,2.5,6,3.2,11.4h8.5C40.7,13.7,40.6,13.6,40.6,13.5z M40.9,14.4h-8.7
						c0.4,3.3,0.6,7.1,0.6,10.7h9.9C42.7,21.2,42.1,17.6,40.9,14.4z M7.8,13.8h6.4c1.9-5.2,5.2-9.2,9-11C16.6,4.1,11.1,8.2,7.8,13.8
						z M32.2,25.7h-9c0,4.2,0.2,8,0.6,11.2h7.8C32,33.7,32.2,29.9,32.2,25.7z M12.8,25.7c0,4.1,0.8,7.9,2,11.2h8.5
						c-0.4-3.5-0.6-7.4-0.6-11.2H12.8z M8.1,37.5c3.3,5.3,8.7,9.2,15,10.5c-3.7-1.7-6.8-5.5-8.8-10.5H8.1z M15,37.5
						c2.4,6,6.6,10.2,11.5,10.9c-1.4-1.6-2.5-5.7-3.1-10.9H15z M27.8,48.5c1.4,0,3-4.1,3.8-10.9H24C24.8,44.4,26.3,48.5,27.8,48.5z
						 M50.8,26.5c0-0.3,0-0.5,0-0.8h-7.5c0,0.3,0,0.6,0,0.8c0,0.1,0,0.2,0,0.3c0,0.3,0,0.5,0,0.8c0,0.1,0,0.3,0,0.4
						c0,0.2,0,0.5-0.1,0.7c0,0.1,0,0.2,0,0.4c0,0.3-0.1,0.6-0.1,0.8c0,0.1,0,0.2,0,0.2c0,0.4-0.1,0.7-0.2,1c0,0.1,0,0.2,0,0.3
						c0,0.3-0.1,0.5-0.1,0.8c0,0.1,0,0.2-0.1,0.4c0,0.2-0.1,0.4-0.1,0.7c0,0.1-0.1,0.2-0.1,0.4c-0.1,0.2-0.1,0.5-0.2,0.7
						c0,0.1-0.1,0.2-0.1,0.3c-0.1,0.2-0.1,0.5-0.2,0.7c-0.2-0.1-0.4-0.2-0.5-0.2c0.9-2.9,1.4-6.1,1.4-9.4h-9.9
						c0,3.9-0.2,7.8-0.6,11.2h6.3c0,0.2,0,0.4,0,0.6h-6.4c-0.6,5.2-1.7,9.3-3.1,10.9c4.4-0.6,8.2-4,10.7-9c0.2,0.1,0.4,0.2,0.5,0.2
						c0,0,0,0,0,0c-0.1,0.3-0.3,0.5-0.4,0.8c0,0.1-0.1,0.2-0.1,0.2c-0.1,0.2-0.2,0.4-0.3,0.6c-0.1,0.1-0.1,0.2-0.2,0.3
						c-0.1,0.2-0.2,0.3-0.3,0.5c-0.1,0.1-0.1,0.2-0.2,0.3c-0.1,0.2-0.2,0.4-0.4,0.5c0,0.1-0.1,0.1-0.1,0.2c-0.2,0.2-0.3,0.5-0.5,0.7
						c0,0-0.1,0.1-0.1,0.1c-0.1,0.2-0.3,0.3-0.4,0.5c-0.1,0.1-0.1,0.1-0.2,0.2c-0.1,0.1-0.2,0.3-0.4,0.4c-0.1,0.1-0.1,0.1-0.2,0.2
						c-0.1,0.1-0.3,0.3-0.4,0.4c-0.1,0.1-0.1,0.1-0.2,0.2c-0.4,0.4-0.8,0.7-1.2,1c-0.1,0-0.1,0.1-0.2,0.1c-0.2,0.1-0.3,0.2-0.5,0.3
						c-0.1,0-0.1,0.1-0.2,0.1c-0.2,0.1-0.3,0.2-0.5,0.3c-0.1,0-0.1,0.1-0.2,0.1c-0.2,0.1-0.4,0.2-0.6,0.3c0,0-0.1,0-0.1,0.1
						c0,0,0,0,0,0c0,0,0,0,0,0c0.1,0,0.1,0,0.2,0c0.3-0.1,0.6-0.1,0.9-0.2c0.1,0,0.2-0.1,0.3-0.1c0.2-0.1,0.5-0.1,0.7-0.2
						c0.1,0,0.2-0.1,0.4-0.1c0.2-0.1,0.4-0.1,0.7-0.2c0.1,0,0.2-0.1,0.4-0.1c0.2-0.1,0.4-0.2,0.6-0.3c0.1,0,0.2-0.1,0.4-0.1
						c0.2-0.1,0.4-0.2,0.7-0.3c0.1,0,0.2-0.1,0.3-0.1c0.3-0.1,0.5-0.3,0.7-0.4c0.1,0,0.1-0.1,0.2-0.1c0.3-0.2,0.6-0.3,0.9-0.5
						c0,0,0.1-0.1,0.1-0.1c0.3-0.2,0.5-0.3,0.7-0.5c0.1-0.1,0.2-0.1,0.3-0.2c0.2-0.1,0.4-0.3,0.6-0.4c0.1-0.1,0.2-0.2,0.3-0.2
						c0.2-0.1,0.3-0.3,0.5-0.4c0.1-0.1,0.2-0.2,0.3-0.3c0.2-0.1,0.3-0.3,0.5-0.4c0.1-0.1,0.2-0.2,0.3-0.3c0.2-0.2,0.3-0.3,0.5-0.5
						c0.1-0.1,0.2-0.2,0.3-0.3c0.2-0.2,0.4-0.4,0.5-0.6c0.1-0.1,0.1-0.1,0.2-0.2c0.2-0.3,0.5-0.5,0.7-0.8c0,0,0.1-0.1,0.1-0.1
						c0.2-0.2,0.4-0.5,0.6-0.7c0.1-0.1,0.1-0.2,0.2-0.3c0.1-0.2,0.3-0.4,0.4-0.6c0.1-0.1,0.1-0.2,0.2-0.3c0.1-0.2,0.2-0.4,0.3-0.5
						H43c0-0.2,0-0.4,0-0.6h4.7c0.1-0.1,0.1-0.2,0.2-0.3c0.1-0.1,0.1-0.2,0.2-0.4c0.1-0.2,0.2-0.4,0.3-0.6c0.1-0.1,0.1-0.2,0.2-0.4
						c0.1-0.2,0.2-0.5,0.3-0.7c0-0.1,0.1-0.2,0.1-0.3c0.1-0.3,0.3-0.7,0.4-1c0,0,0-0.1,0-0.1c0.1-0.3,0.2-0.6,0.3-0.9
						c0-0.1,0.1-0.2,0.1-0.3c0.1-0.2,0.1-0.5,0.2-0.7c0-0.1,0.1-0.3,0.1-0.4c0.1-0.2,0.1-0.4,0.2-0.7c0-0.1,0.1-0.3,0.1-0.4
						c0-0.2,0.1-0.4,0.1-0.7c0-0.1,0-0.3,0.1-0.4c0-0.2,0.1-0.4,0.1-0.7c0-0.1,0-0.3,0-0.4c0-0.2,0-0.5,0.1-0.7
						C50.8,26.8,50.8,26.7,50.8,26.5z M49.4,15.8c1.3,2.9,2.1,6.2,2.1,9.6c0,13-10.6,23.6-23.6,23.6v0c-12.4,0-22.6-9.6-23.6-21.7
						c0.2,0,0.4,0,0.6,0c0.3,3.5,1.4,6.7,3,9.6h6.4c-1.2-3.3-1.9-7.2-2-11.2H6.7c0-0.2,0.1-0.4,0.1-0.6h5.4c0-3.9,0.7-7.5,1.8-10.7
						H7.5c-1.4,2.6-2.3,5.5-2.7,8.5c-0.2,0-0.4,0-0.6,0C5.5,11,15.6,1.8,27.8,1.8c8,0,15.1,4,19.4,10.1c-0.2,0.1-0.4,0.2-0.5,0.3
						c-0.1-0.1-0.1-0.2-0.2-0.3c-0.1-0.1-0.1-0.2-0.2-0.3c-0.2-0.2-0.3-0.4-0.5-0.7c0-0.1-0.1-0.1-0.1-0.2c-0.2-0.3-0.4-0.5-0.7-0.8
						c-0.1-0.1-0.1-0.2-0.2-0.2c-0.2-0.2-0.3-0.4-0.5-0.5C44,9.1,43.9,9,43.8,8.9c-0.2-0.2-0.3-0.3-0.5-0.4
						c-0.1-0.1-0.2-0.2-0.3-0.3c-0.2-0.1-0.3-0.3-0.5-0.4c-0.1-0.1-0.2-0.2-0.3-0.3c-0.2-0.1-0.3-0.3-0.5-0.4
						c-0.1-0.1-0.2-0.2-0.3-0.3c-0.2-0.1-0.4-0.3-0.5-0.4c-0.1-0.1-0.2-0.1-0.3-0.2c-0.2-0.2-0.5-0.3-0.7-0.4
						c-0.1,0-0.1-0.1-0.2-0.1c-0.3-0.2-0.6-0.4-0.9-0.5c-0.1,0-0.2-0.1-0.2-0.1c-0.2-0.1-0.5-0.2-0.7-0.4c-0.1-0.1-0.2-0.1-0.3-0.2
						c-0.2-0.1-0.4-0.2-0.6-0.3c-0.1-0.1-0.3-0.1-0.4-0.2c-0.2-0.1-0.4-0.2-0.6-0.2c-0.1,0-0.3-0.1-0.4-0.1
						c-0.2-0.1-0.4-0.1-0.6-0.2c-0.1,0-0.3-0.1-0.4-0.1c-0.2-0.1-0.5-0.1-0.7-0.2c-0.1,0-0.2-0.1-0.4-0.1c-0.3-0.1-0.6-0.1-0.8-0.2
						c-0.1,0-0.1,0-0.2,0c0,0,0,0,0,0c0,0,0,0,0,0c0,0,0.1,0,0.1,0.1C32.7,3,32.8,3.1,33,3.2c0.1,0,0.1,0.1,0.2,0.1
						c0.1,0.1,0.3,0.2,0.4,0.3c0.1,0,0.2,0.1,0.2,0.1c0.2,0.1,0.3,0.2,0.4,0.3c0.1,0,0.1,0.1,0.2,0.1c0.2,0.2,0.4,0.3,0.6,0.5
						c0,0,0,0,0,0c0.2,0.2,0.4,0.3,0.6,0.5c0.1,0.1,0.1,0.1,0.2,0.2c0.1,0.1,0.3,0.3,0.4,0.4c0.1,0.1,0.1,0.1,0.2,0.2
						c0.1,0.1,0.2,0.3,0.4,0.4c0.1,0.1,0.1,0.1,0.2,0.2c0.1,0.2,0.3,0.3,0.4,0.5c0,0.1,0.1,0.1,0.1,0.2c0.2,0.2,0.3,0.4,0.5,0.7
						c0,0.1,0.1,0.1,0.1,0.2c0.1,0.2,0.2,0.3,0.4,0.5c0.1,0.1,0.1,0.2,0.2,0.3C39,9,39.1,9.2,39.2,9.4c0.1,0.1,0.1,0.2,0.2,0.3
						c0.1,0.2,0.2,0.4,0.3,0.5c0,0.1,0.1,0.2,0.1,0.3c0.1,0.3,0.3,0.5,0.4,0.8c0,0.1,0,0.1,0.1,0.2c0.1,0.2,0.2,0.5,0.3,0.7
						c0,0.1,0.1,0.2,0.1,0.3c0.1,0.2,0.2,0.4,0.2,0.6c0,0.1,0.1,0.2,0.1,0.3c0.1,0.2,0.1,0.3,0.2,0.5h4.3c0,0.2,0,0.4,0,0.6h-4.1
						c0.1,0.2,0.1,0.4,0.2,0.6c0,0.1,0,0.1,0.1,0.2c0.1,0.3,0.2,0.6,0.3,1c0,0.1,0.1,0.2,0.1,0.3c0.1,0.2,0.1,0.5,0.2,0.7
						c0,0.1,0.1,0.2,0.1,0.4c0.1,0.2,0.1,0.4,0.1,0.7c0,0.1,0.1,0.2,0.1,0.4c0.1,0.2,0.1,0.5,0.1,0.8c0,0.1,0,0.2,0.1,0.3
						c0.1,0.3,0.1,0.7,0.2,1c0,0.1,0,0.2,0,0.2c0,0.3,0.1,0.6,0.1,0.8c0,0.1,0,0.2,0,0.4c0,0.2,0,0.5,0.1,0.7c0,0.1,0,0.3,0,0.4
						c0,0.3,0,0.5,0,0.8c0,0.1,0,0.2,0,0.4c0,0.3,0,0.5,0,0.8h7.5c0-0.3,0-0.6,0-0.8c0-0.1,0-0.2,0-0.4c0-0.2,0-0.5-0.1-0.7
						c0-0.1,0-0.3,0-0.4c0-0.2-0.1-0.4-0.1-0.7c0-0.1,0-0.3-0.1-0.4c0-0.2-0.1-0.4-0.1-0.6c0-0.1-0.1-0.3-0.1-0.4
						c0-0.2-0.1-0.4-0.1-0.6c0-0.1-0.1-0.3-0.1-0.4c-0.1-0.2-0.1-0.5-0.2-0.7c0-0.1-0.1-0.2-0.1-0.4c-0.1-0.3-0.2-0.6-0.3-0.9
						c0,0,0-0.1,0-0.1c-0.1-0.3-0.3-0.7-0.4-1c0-0.1-0.1-0.2-0.1-0.3c0,0,0-0.1,0-0.1C49,16,49.2,15.9,49.4,15.8z"/>
				</g>
				<g class="st3">
					<defs>
						<rect id="SVGID_11_" x="0.8" y="-1.9" width="84" height="84"/>
					</defs>
					<clipPath id="SVGID_12_">
						<use xlink:href="#SVGID_11_"  style="overflow:visible;"/>
					</clipPath>
					<g class="st6">
						<defs>
							<rect id="SVGID_13_" x="1.4" y="1.5" width="50" height="48"/>
						</defs>
						<clipPath id="SVGID_14_">
							<use xlink:href="#SVGID_13_"  style="overflow:visible;"/>
						</clipPath>
						<rect x="-4.2" y="-6.9" class="st7" width="94" height="94"/>
					</g>
				</g>
			</g>
		</g>
	</g>
</g>
</svg>
