<?xml version="1.0" encoding="utf-8"?>
<!-- Generator: Adobe Illustrator 22.0.0, SVG Export Plug-In . SVG Version: 6.00 Build 0)  -->
<svg version="1.1" id="Layer_1" xmlns="http://www.w3.org/2000/svg" xmlns:xlink="http://www.w3.org/1999/xlink" x="0px" y="0px"
	 viewBox="0 0 54 50" style="enable-background:new 0 0 54 50;" xml:space="preserve">
<style type="text/css">
	.st0{fill:#305B81;stroke:#305B81;}
</style>
<title>Artboard</title>
<desc>Created with Sketch.</desc>
<g id="Artboard">
	<path id="cognitive" class="st0" d="M50.2,20c-0.7-0.1-1.4,0.1-1.8,0.5L23.8,3.8c0-0.1,0.1-0.1,0.1-0.2c0.1-0.5,0-1.2-0.3-1.6
		c-0.3-0.5-0.8-0.8-1.4-0.9c-1.2-0.2-2.3,0.6-2.5,1.8c-0.1,0.8,0.1,1.4,0.6,1.9L5.1,25.8c-0.2-0.1-0.3-0.1-0.5-0.2
		c-1.2-0.2-2.3,0.6-2.5,1.8C2,27.9,2,28.5,2.4,29c0.3,0.5,0.8,0.8,1.4,0.9h0.4c0.5,0,0.9-0.1,1.2-0.4l20.2,16.7
		c0,0.1-0.1,0.2-0.1,0.3c-0.2,1.2,0.6,2.3,1.8,2.5h0.4c1.1,0,2-0.8,2.1-1.8c0.1-0.3,0-0.8-0.1-1.1l19-22.1c0.2,0.1,0.3,0.1,0.5,0.2
		h0.4c1.1,0,2-0.8,2.1-1.8C52.2,21.3,51.4,20.2,50.2,20L50.2,20z M29.4,45.6c-0.3-0.4-0.8-0.8-1.4-0.8h-0.1l2.5-23.9l0,0
		c1,0,1.9-0.7,2.1-1.7l15.1,3c0,0.6,0.2,1.2,0.7,1.6L29.4,45.6L29.4,45.6z M25.9,45.6l-20-16.5c0.2-0.3,0.3-0.6,0.4-1
		c0.1-0.3,0.1-0.5,0-0.8l22.1-7.8c0.1,0.1,0.1,0.2,0.2,0.3c0.3,0.4,0.7,0.7,1.1,0.8l-2.5,24C26.8,44.9,26.3,45.2,25.9,45.6
		L25.9,45.6z M20.7,5.1c0.2,0.1,0.4,0.1,0.6,0.2h0.4c0.3,0,0.5-0.1,0.8-0.1l6.9,11.6c-0.5,0.3-0.9,0.8-1,1.4c-0.1,0.2,0,0.5,0,0.7
		L6.1,26.7c-0.1-0.1-0.1-0.1-0.1-0.2c-0.1-0.1-0.2-0.2-0.3-0.3L20.7,5.1L20.7,5.1z M30.2,20.2c-0.4-0.1-0.8-0.3-1-0.6
		c-0.2-0.3-0.3-0.8-0.3-1.1c0.1-0.8,0.8-1.2,1.5-1.2h0.3c0.4,0.1,0.8,0.3,1,0.6c0.2,0.3,0.3,0.8,0.3,1.1
		C31.8,19.8,31,20.3,30.2,20.2L30.2,20.2z M23.5,4.4l24.5,16.7c-0.1,0.1-0.1,0.3-0.2,0.4l-15.1-3c-0.1-0.3-0.1-0.8-0.3-1
		c-0.3-0.5-0.8-0.8-1.4-0.9c-0.3-0.1-0.6-0.1-0.9,0L23.1,4.9C23.2,4.7,23.3,4.6,23.5,4.4L23.5,4.4z M20.2,3c0.1-0.8,0.8-1.2,1.5-1.2
		H22c0.4,0.1,0.8,0.3,1,0.6s0.3,0.8,0.3,1.1c-0.1,0.8-0.9,1.4-1.7,1.2C20.6,4.5,20,3.8,20.2,3L20.2,3z M3.9,29.2
		c-0.4-0.1-0.8-0.3-1-0.6c-0.2-0.3-0.3-0.8-0.3-1.1c0.1-0.8,0.8-1.2,1.5-1.2h0.3c0.4,0.1,0.8,0.3,1,0.6c0.2,0.3,0.3,0.7,0.2,1.1
		C5.5,28.8,4.8,29.4,3.9,29.2L3.9,29.2z M29.2,47.1c-0.1,0.8-0.9,1.4-1.7,1.2c-0.8-0.1-1.4-1-1.2-1.7s0.8-1.2,1.5-1.2h0.3
		c0.4,0.1,0.8,0.3,1,0.6C29.2,46.4,29.3,46.8,29.2,47.1L29.2,47.1z M51.3,22.4c-0.1,0.8-0.9,1.4-1.7,1.2s-1.4-1-1.2-1.7
		c0.1-0.8,0.8-1.2,1.5-1.2h0.3C50.9,20.9,51.4,21.6,51.3,22.4L51.3,22.4z"/>
</g>
</svg>
