<?xml version="1.0" encoding="utf-8"?>
<!-- Generator: Adobe Illustrator 22.0.0, SVG Export Plug-In . SVG Version: 6.00 Build 0)  -->
<svg version="1.1" id="Layer_1" xmlns="http://www.w3.org/2000/svg" xmlns:xlink="http://www.w3.org/1999/xlink" x="0px" y="0px"
	 viewBox="0 0 54 50" style="enable-background:new 0 0 54 50;" xml:space="preserve">
<style type="text/css">
	.st0{clip-path:url(#SVGID_2_);}
	.st1{clip-path:url(#SVGID_4_);fill:#305B81;}
	.st2{clip-path:url(#SVGID_6_);fill:none;stroke:#305B81;stroke-miterlimit:10;}
</style>
<title>Artboard</title>
<desc>Created with Sketch.</desc>
<g>
	<defs>
		<path id="SVGID_1_" d="M51.6,48.2H2V1.4C2,1.2,2.1,1,2.3,1c0.2,0,0.4,0.2,0.4,0.4v46.1h48.9c0.2,0,0.4,0.2,0.4,0.4
			S51.8,48.2,51.6,48.2 M39,43.2h11.4V15.4H39V43.2z M39.7,42.5h10V16.1h-10V42.5z M22.6,43.2h12.1V6.9H22.6V43.2z M23.3,42.5H34
			V7.6H23.3V42.5z M7,43.2h11.4V26.1H7V43.2z M7.7,42.5h10V26.8h-10V42.5z"/>
	</defs>
	<clipPath id="SVGID_2_">
		<use xlink:href="#SVGID_1_"  style="overflow:visible;"/>
	</clipPath>
	<g class="st0">
		<defs>
			<rect id="SVGID_3_" x="-523" y="-1238" width="1312" height="2198"/>
		</defs>
		<clipPath id="SVGID_4_">
			<use xlink:href="#SVGID_3_"  style="overflow:visible;"/>
		</clipPath>
		<rect x="-3" y="-4" class="st1" width="60" height="57.2"/>
	</g>
</g>
<g>
	<defs>
		<rect id="SVGID_5_" x="-523" y="-1238" width="1312" height="2198"/>
	</defs>
	<clipPath id="SVGID_6_">
		<use xlink:href="#SVGID_5_"  style="overflow:visible;"/>
	</clipPath>
	<path class="st2" d="M51.6,48.2H2V1.4C2,1.2,2.1,1,2.3,1c0.2,0,0.4,0.2,0.4,0.4v46.1h48.9c0.2,0,0.4,0.2,0.4,0.4
		C52,48,51.8,48.2,51.6,48.2 M39,43.2h11.4V15.4H39V43.2z M39.7,42.5h10V16.1h-10V42.5z M22.6,43.2h12.1V6.9H22.6V43.2z M23.3,42.5
		H34V7.6H23.3V42.5z M7,43.2h11.4V26.1H7V43.2z M7.7,42.5h10V26.8h-10V42.5z"/>
</g>
</svg>
